<svg width="390" height="102" viewBox="0 0 390 102" fill="none" xmlns="http://www.w3.org/2000/svg">
    <g clip-path="url(#clip0_1_563)">
        <rect width="390" height="102" fill="#0F141F"/>
        <g style="mix-blend-mode:overlay">
            <path d="M212.316 30.1992L202.306 51.5605L201.972 52.2725H264.831L249.675 84.2422C246.881 88.0511 240.506 95.4197 231.193 95.4199H182.149L182.015 95.707L151.823 159.842L125.329 105.43L160.108 30.1992H212.316ZM306.193 -34.5L290.644 -3.26758C289.493 -1.38519 288.163 1.27454 285.837 3.50586C283.528 5.72111 280.235 7.50577 275.171 7.50586H142.354L142.223 7.80469L124.747 47.5508L83.8086 -34.5H306.193Z" stroke="white" stroke-opacity="0.3"/>
        </g>
        <path d="M218.652 66.9977C212.6 55.296 214.395 34.7844 222.387 24.3114L228.762 24.8691L225.027 67.5555L218.652 66.9977Z" fill="#1B2438"/>
        <path d="M340.613 77.6679C348.605 67.1949 350.4 46.6833 344.348 34.9816L337.972 34.4238L334.238 77.1101L340.613 77.6679Z" fill="#1B2438"/>
        <path d="M338.862 31.5128L337.455 28.7925L300.312 25.5429L291.346 24.7585L275.458 23.3684L266.492 22.584L229.349 19.3344L227.491 21.7691C222.655 28.1069 219.987 36.9799 219.238 45.5424C218.489 54.1049 219.575 63.3064 223.238 70.3878L224.644 73.1081L261.787 76.3577L270.753 77.1421L286.642 78.5321L295.608 79.3166L332.75 82.5661L334.608 80.1315C339.445 73.7936 342.113 64.9206 342.862 56.3581C343.611 47.7956 342.524 38.5941 338.862 31.5128Z" fill="#273552"/>
        <path d="M339.986 56.1064C339.271 64.2713 336.736 72.4684 332.404 78.1454L331.661 79.1191L227.216 69.9813L226.654 68.8935C223.373 62.5504 222.3 54.0376 223.014 45.8727C223.729 37.7079 226.264 29.5108 230.596 23.8338L231.339 22.8601L335.784 31.9979L336.346 33.0857C339.627 39.4288 340.7 47.9416 339.986 56.1064Z" fill="#1B2438"/>
        <path fill-rule="evenodd" clip-rule="evenodd" d="M301.384 31.2227C293.392 41.6957 291.598 62.2073 297.65 73.909C305.642 63.436 307.436 42.9244 301.384 31.2227Z" fill="#202B42"/>
        <path d="M301.384 31.2226C307.436 42.9243 305.642 63.4359 297.65 73.9089L330.635 76.7947C338.627 66.3217 340.421 45.8101 334.369 34.1084L301.384 31.2226Z" fill="#2D3D5E"/>
        <mask id="mask0_1_563" style="mask-type:alpha" maskUnits="userSpaceOnUse" x="297" y="31" width="41" height="46">
            <path d="M301.384 31.2225C307.436 42.9242 305.642 63.4359 297.65 73.9089L330.635 76.7947C338.627 66.3217 340.421 45.8101 334.369 34.1084L301.384 31.2225Z" fill="#D9D9D9"/>
        </mask>
        <g mask="url(#mask0_1_563)">
            <path d="M328.531 49.1596L322.611 44.9485C322.202 44.6548 321.722 44.4781 321.222 44.4369C320.718 44.3918 320.21 44.4848 319.752 44.7062L319.766 44.7005L313.247 47.8233C312.986 47.9332 312.76 48.1116 312.59 48.3401C312.42 48.5687 312.313 48.839 312.28 49.1232L311.591 57.0005C311.528 57.7138 311.855 58.37 312.392 58.7525L312.4 58.7584L318.16 62.8514C318.547 63.1307 319.025 63.3172 319.548 63.363C320.073 63.409 320.575 63.3081 321.019 63.0938L321.006 63.0995L327.389 60.0689C327.701 59.9306 327.97 59.7103 328.17 59.4307C328.37 59.151 328.493 58.8224 328.526 58.4787L329.215 50.6065C329.236 50.3268 329.185 50.0465 329.066 49.7936C328.948 49.5406 328.766 49.3238 328.539 49.1646L328.531 49.1596ZM315.628 57.2809C315.157 57.3004 314.756 56.6065 314.739 55.738C314.721 54.8695 315.082 54.1555 315.552 54.1447C316.021 54.1337 316.422 54.819 316.441 55.6875C316.46 56.5561 316.105 57.2707 315.628 57.2809ZM320.734 50.7922C319.845 50.7144 319.159 50.2643 319.201 49.7911C319.242 49.3179 319.996 48.9937 320.885 49.0715C321.774 49.1493 322.46 49.5994 322.419 50.0726C322.377 50.5458 321.627 50.8356 320.737 50.7578L320.734 50.7922ZM321.009 47.6519C320.12 47.5742 319.433 47.1326 319.476 46.6508C319.518 46.1699 320.271 45.8535 321.16 45.9312C322.049 46.009 322.735 46.4592 322.693 46.9324C322.652 47.4055 321.901 47.6953 321.012 47.6175L321.009 47.6519ZM323.852 59.925C323.612 60.7181 323.07 61.2524 322.639 61.1106C322.208 60.9689 322.054 60.1925 322.299 59.4337C322.545 58.675 323.081 58.1064 323.513 58.2395C323.945 58.3727 324.103 59.0974 323.855 59.8906L323.852 59.925ZM324.235 55.5458C323.995 56.3389 323.453 56.8732 323.021 56.7401C322.589 56.6069 322.436 55.8219 322.682 55.0546C322.929 54.2863 323.464 53.7263 323.895 53.8681C324.327 54.0099 324.487 54.7174 324.238 55.5106L324.235 55.5458ZM327.108 58.398C326.868 59.1911 326.318 59.7247 325.886 59.5906C325.454 59.4566 325.31 58.6733 325.547 57.9052C325.785 57.1371 326.337 56.5785 326.769 56.7203C327.2 56.862 327.35 57.5861 327.11 58.38L327.108 58.398ZM327.491 54.0189C327.251 54.8128 326.701 55.3455 326.269 55.2123C325.837 55.0792 325.693 54.2949 325.93 53.5354C326.167 52.7759 326.72 52.2088 327.152 52.342C327.584 52.4751 327.733 53.2077 327.493 54.0016L327.491 54.0189Z" fill="#202D47"/>
        </g>
        <path d="M265.35 28.07C257.358 38.5431 255.564 59.0547 261.616 70.7564C269.608 60.2834 271.402 39.7717 265.35 28.07Z" fill="#202B42"/>
        <path fill-rule="evenodd" clip-rule="evenodd" d="M228.631 67.8706C222.579 56.1689 224.373 35.6572 232.365 25.1842L265.35 28.07C257.358 38.543 255.564 59.0547 261.616 70.7564L228.631 67.8706Z" fill="#2D3D5E"/>
        <mask id="mask1_1_563" style="mask-type:alpha" maskUnits="userSpaceOnUse" x="225" y="25" width="41" height="46">
            <path fill-rule="evenodd" clip-rule="evenodd" d="M228.631 67.8705C222.579 56.1688 224.374 35.6572 232.366 25.1842L265.35 28.07C257.358 38.543 255.564 59.0546 261.616 70.7563L228.631 67.8705Z" fill="#D9D9D9"/>
        </mask>
        <g mask="url(#mask1_1_563)">
            <path d="M251.9 39.3759L234.965 37.8943L237.453 45.8307L239.132 42.2235L249.149 43.0999C249.936 43.1687 250.241 42.5171 250.441 42.1954L251.9 39.3759Z" fill="#202D47"/>
            <path d="M244.283 44.674L240.252 44.3213L236.999 51.0186L238.6 56.2811L241.437 50.5297L245.121 50.852C245.847 50.9156 246.401 50.2623 246.642 49.9326L248.077 47.0408L243.324 46.625L244.283 44.674Z" fill="#202D47"/>
        </g>
        <path d="M265.774 71.1202C259.722 59.4185 261.516 38.9069 269.508 28.4339L297.227 30.8589C303.279 42.5606 301.484 63.0722 293.492 73.5452L265.774 71.1202Z" fill="#2D3D5E"/>
        <mask id="mask2_1_563" style="mask-type:alpha" maskUnits="userSpaceOnUse" x="262" y="28" width="39" height="46">
            <path d="M265.774 71.1202C259.722 59.4185 261.516 38.9069 269.508 28.4339L297.227 30.8589C303.279 42.5606 301.484 63.0722 293.492 73.5452L265.774 71.1202Z" fill="#D9D9D9"/>
        </mask>
        <g mask="url(#mask2_1_563)">
            <path d="M274.714 42.4976L274.146 48.9969L277.012 49.2476C277.341 45.4833 279.933 47.6066 282.908 47.8669C281.39 49.8085 276.777 51.9238 276.283 57.5703L282.452 58.11C283.133 50.3166 288.19 49.0996 288.661 43.7177L285.522 43.4431L285.443 44.3548C283.123 44.1519 281.743 41.6901 277.5 43.66L277.58 42.7483L274.714 42.4976Z" fill="#202D47"/>
        </g>
        <path d="M162 20.5C177.808 22.5 185.813 17 190.373 11C191.184 16.2 195.44 20.5 200 20.5C196.453 26 183.787 35 173.653 35C166.053 35 162.507 27.5 162 20.5Z" fill="#192133"/>
        <path d="M351.728 70.5228C363.242 73.8926 369.754 70.7071 373.763 66.739C373.821 70.7407 376.527 74.4733 379.909 75.012C376.704 78.7242 366.369 83.9879 358.854 82.7908C353.218 81.893 351.372 75.8406 351.728 70.5228Z" fill="#192133"/>
        <path d="M365.333 38C354.667 35.2857 350.625 26.4643 350 19C353.778 21.7143 363.067 27.0071 370 26.4643C366.267 28.6357 365.333 35.0595 365.333 38Z" fill="#1B2438"/>
        <path d="M203 76.3074C191.8 79.1434 181.364 72.7623 175 66.3811C176.273 66.3811 179.836 65.1049 183.909 60C187.982 66.2393 198.333 65.4358 203 64.2541C200.455 66.5229 201.939 73.235 203 76.3074Z" fill="#192133"/>
    </g>
    <defs>
        <clipPath id="clip0_1_563">
            <rect width="390" height="102" fill="white"/>
        </clipPath>
    </defs>
</svg>

